<?xml version="1.0" encoding="utf-8"?>
<!-- Generator: Adobe Illustrator 28.1.0, SVG Export Plug-In . SVG Version: 6.00 Build 0)  -->
<svg version="1.1" id="Layer_1" xmlns="http://www.w3.org/2000/svg" xmlns:xlink="http://www.w3.org/1999/xlink" x="0px" y="0px"
	 viewBox="0 0 1357.3 661" style="enable-background:new 0 0 1357.3 661;" xml:space="preserve">
<style type="text/css">
	.st0{fill:#051036;}
	.st1{fill:url(#SVGID_1_);}
</style>
<g>
	<path class="st0" d="M471.8,412.6l-1.5,1.8l-4.9,5.9l-7.2,8.6l-4,4.8l-1.7,2L438,452.9l-1.5,1.8l-2.8-2.7l-16-15.1l-1.1-1l-2.9-2.8
		l-3-2.9l-1.5-1.4l-12.6-11.9l-3.1-2.9l-10.4-9.8l-3.1-2.9l-3.5-3.3l-3.2-3.1l-16.7-15.8l-0.9-0.8l-2.6-2.5l-2.1-1.9l-14.4-13.6
		l-4-3.8c3.8-2.5,7.5-5.1,10.9-8c0.8-0.7,1.6-1.4,2.4-2.1c2.7-2.4,5.4-5,7.8-7.6c0.6-0.7,1.3-1.4,1.9-2.1c2.4-2.7,4.6-5.5,6.7-8.4
		c2.2-3,4.2-6.1,6-9.3c0.5-0.9,1-1.8,1.5-2.7l2,1.9l0.9,0.8l10.3,9.7l7.3,6.9l1.5,1.4l10,9.4l8.7,8.2l0.2,0.2l1.1,1.1l19,18l0,0.1
		l0.9,0.9l6.1,5.8l13.1,12.4l0.7,0.7l5.8,5.4l2.4,2.2l5.5,5.1l5.8,5.5L471.8,412.6z"/>
	
		<linearGradient id="SVGID_1_" gradientUnits="userSpaceOnUse" x1="26.52" y1="329.2051" x2="520.27" y2="329.2051" gradientTransform="matrix(1 0 0 -1 0 662)">
		<stop  offset="0" style="stop-color:#B0E1EA"/>
		<stop  offset="1" style="stop-color:#00A1B5"/>
	</linearGradient>
	<path class="st1" d="M200.8,346.5H40.6c-1.5-4.1-2.8-8.4-4.1-12.6c-1.4-4.7-2.7-9.5-3.8-14.4c0-0.2-0.1-0.3-0.1-0.5
		c-1.4-6.2-2.6-12.6-3.5-19c-0.4-2.8-0.8-5.6-1.1-8.4c-0.8-7.3-1.3-14.6-1.5-22.1c0-1.8-0.1-3.5-0.1-5.3c0-1.3,0-2.5,0-3.8
		c0.1-8,0.6-15.9,1.5-23.6c0.3-2.4,0.6-4.8,0.9-7.1c1-6.9,2.2-13.6,3.7-20.3c1-4.6,2.2-9.2,3.5-13.7c1.3-4.6,2.8-9.2,4.4-13.7
		c1.9-5.5,4-10.9,6.3-16.1c1.7-3.8,3.4-7.6,5.2-11.3c0.6-1.2,1.2-2.3,1.8-3.5c2-4,4.2-7.9,6.5-11.8c2.4-4.1,5-8.2,7.6-12.2
		c2.6-3.9,5.4-7.8,8.2-11.6c1.6-2.2,3.3-4.3,5-6.4c2.6-3.2,5.3-6.3,8-9.4c1.6-1.8,3.3-3.6,4.9-5.4c4.6-4.9,9.4-9.6,14.5-14
		c1.8-1.6,3.7-3.2,5.5-4.8c1.3-1.1,2.6-2.2,3.9-3.2c5.8-4.7,11.8-9.1,18-13.3c0,0,0,0,0,0c7.7-5.1,15.6-9.8,23.9-14.1h0.1l0,0
		c1.1-0.6,2.3-1.2,3.4-1.8v224.7l0.1-0.1c0.2,8.3,1.4,16.3,3.4,24c0.9,3.6,2.1,7.2,3.3,10.6c2.2,5.9,4.8,11.5,7.9,16.8
		c1.9,3.2,3.9,6.3,6,9.3c2.1,2.9,4.4,5.7,6.7,8.4C194.1,340.2,197.4,343.5,200.8,346.5z M494.6,154.5H273.4
		c-5.3,0-10.5,0.4-15.6,1.1c-1.3,0.2-2.6,0.4-4,0.6c-2.6,0.5-5.2,1.1-7.8,1.7c-7.1,1.8-13.9,4.3-20.3,7.4c-2.4,1.2-4.8,2.4-7.1,3.8
		c-5.7,3.3-11.1,7.1-16,11.3c-0.6,0.5-1.1,1-1.7,1.4c-1.5,1.4-3,2.8-4.5,4.2c-1.8,1.8-3.6,3.6-5.2,5.5V31.4c7.7-2.7,15.6-5.1,23.6-7
		c1.3-0.3,2.5-0.6,3.8-0.9c2.8-0.6,5.5-1.2,8.3-1.7c6.3-1.2,12.6-2.1,19.1-2.9l0,0.1v-0.1c6.7-0.7,13.4-1.2,20.3-1.4
		c2.4-0.1,4.8-0.1,7.1-0.1s4.8,0,7.1,0.1c6.8,0.2,13.6,0.7,20.3,1.4v0.1l0-0.1c6.4,0.7,12.8,1.7,19.1,2.9c2.8,0.5,5.5,1.1,8.3,1.7
		c1.3,0.3,2.5,0.6,3.8,0.9c8,2,15.9,4.3,23.6,7c1.6,0.6,3.2,1.2,4.8,1.8c7.7,2.9,15.3,6.2,22.6,9.8c1.2,0.6,2.3,1.2,3.5,1.8l0,0h0.1
		c8.2,4.3,16.2,9,23.9,14.1c0,0,0,0,0,0c6.2,4.2,12.2,8.6,18,13.3c1.3,1.1,2.6,2.1,3.9,3.2c1.9,1.6,3.7,3.2,5.5,4.8
		c5,4.5,9.8,9.2,14.5,14c1.7,1.8,3.3,3.6,5,5.4c2.8,3.1,5.4,6.2,8,9.4c1.7,2.1,3.4,4.3,5,6.4c2.9,3.8,5.6,7.6,8.2,11.6
		c2.7,4,5.2,8,7.6,12.2c2.3,3.9,4.5,7.8,6.5,11.8C493.4,152.2,494,153.3,494.6,154.5z M255.6,73L255.6,73l-0.2,0
		C255.4,73.1,255.5,73.1,255.6,73z M520.2,260.4c-0.1-8-0.6-15.9-1.5-23.6c-0.3-2.4-0.6-4.8-0.9-7.1c-1-6.9-2.2-13.6-3.7-20.3
		c-1-4.6-2.2-9.2-3.5-13.7c-1.3-4.6-2.8-9.2-4.4-13.7H346c1.5,1.4,3,2.8,4.5,4.2c1.8,1.8,3.5,3.6,5.2,5.5c2.6,2.9,5,6,7.3,9.2
		c0.3,0.4,0.5,0.7,0.8,1.1c1.6,2.4,3.2,4.9,4.7,7.4c3.3,5.6,6,11.6,8.3,17.8c1.1,3.1,2.1,6.3,3,9.6c2.1,8.2,3.3,16.7,3.4,25.5l0,0
		v5.5l0-0.1c-0.2,7.2-1.1,14.1-2.7,20.9l2.7,2.6l0.6,0.5l5.9,5.5l13.2,12.5l6.7,6.4l1,0.9l2.2,2.1l11.6,10.9l5.2,4.9l8.4,8l3.8,3.6
		l3.5,3.3l4.2,4l15.9,15l0.6,0.6l3.5,3.3l1.4,1.3l6.7,6.4l9,8.5c2.2-3.7,4.3-7.5,6.3-11.4c0.6-1.1,1.2-2.3,1.8-3.5
		c1.7-3.4,3.3-6.8,4.8-10.3c2.5-5.6,4.7-11.3,6.8-17.1c1.5-4.1,2.8-8.3,4.1-12.6c1.4-4.7,2.6-9.5,3.8-14.4c0-0.2,0.1-0.3,0.1-0.5
		c1.4-6.2,2.6-12.6,3.5-19c0.4-2.8,0.8-5.6,1.1-8.4c0.8-7.3,1.3-14.6,1.5-22.1c0-1.8,0.1-3.5,0.1-5.3
		C520.2,263,520.2,261.7,520.2,260.4z M411.5,468.8l-1-1l-11.7-11l-0.7-0.6l-0.5-0.5l-6.6-6.2l-7.9-7.5l-4.2-4l-8.5-8l-1.2-1.2
		l-10.2-9.7l-3.2-3l-6.2-5.9l-9.4-8.8l-1.2-1.1l-10.7-10.1l-0.2-0.2l-9.1-8.6l-7.9-7.5l-5.2-4.9c-1.7,0.5-3.3,1-5,1.4
		c-2.9,0.8-5.9,1.4-8.9,1.9c-0.5,0.1-0.9,0.1-1.4,0.2c-5.6,0.9-11.3,1.3-17.1,1.3H52.2c0.6,1.2,1.2,2.3,1.8,3.5
		c2.2,4.3,4.6,8.5,7,12.7c2.3,3.8,4.6,7.6,7.1,11.3c2.8,4.2,5.8,8.3,8.8,12.4c1.4,1.9,11.7,15.1,11.7,15.1l5.8,6.9l14.5,17.2
		l2.8,3.3l0.6,0.8l17.9,21.3l4.5,5.3l1.6,1.9l11.8,14.1l9.6,11.4l6,7.2l2.3,2.7l14.7,17.5l3.2,3.8l7.2,8.6l10.7,12.7l1.9,2.3
		l14.9,17.7l1.1,1.4l7,8.3l10.9,13l8.4,10l3.8,4.5l5.8,6.9l17.2,20.5h1.3l17.2-20.5l5.8-6.9l3.8-4.5l8.4-10l10.9-13l7-8.3l1.1-1.4
		l14.9-17.7l1.9-2.3l10.7-12.7l7.2-8.6l3.2-3.8l14.7-17.5l2.3-2.7l6-7.2l9.6-11.4l11.8-14.1l1.6-1.9l4.5-5.3l2.2-2.6L411.5,468.8z"
		/>
	<path class="st0" d="M354.9,253.1c-0.8-5.6-2.1-11.1-3.9-16.4c-1.7-4.9-3.9-9.5-6.5-13.9c-0.9-1.5-1.8-2.9-2.7-4.4
		c-2.1-3.2-4.5-6.3-7.1-9.1c-1.4-1.6-2.9-3.1-4.4-4.5c-0.7-0.7-1.4-1.3-2.1-1.9c-0.5-0.5-1.1-0.9-1.6-1.4c-7-6-15.1-10.8-23.9-14.2
		c-0.6-0.2-1.3-0.5-1.9-0.7c-8-2.8-16.6-4.4-25.5-4.7c-0.6,0-1.3,0-2,0s-1.3,0-2,0c-8.9,0.2-17.5,1.8-25.5,4.7
		c-0.6,0.2-1.3,0.5-1.9,0.7c-8.8,3.4-16.9,8.2-23.9,14.2c-0.5,0.5-1.1,0.9-1.6,1.4c-0.7,0.6-1.4,1.3-2.1,1.9c-1.5,1.4-3,3-4.4,4.5
		c-2.6,2.9-4.9,5.9-7.1,9.1c-0.9,1.4-1.9,2.9-2.7,4.4c-2.6,4.4-4.7,9.1-6.5,13.9c-1.9,5.2-3.2,10.7-3.9,16.4
		c-0.5,3.6-0.7,7.3-0.7,11.1c0,4.2,0.3,8.3,0.9,12.4c0.8,5.2,2.1,10.2,3.8,15.1c1.8,5.2,4.2,10.2,7,14.8c2.7,4.5,5.8,8.7,9.3,12.6
		c2,2.3,4.2,4.4,6.5,6.5c0.8,0.7,1.6,1.4,2.3,2c7.1,5.9,15.3,10.7,24.1,13.9c0.3,0.1,0.6,0.2,1,0.4c7.6,2.7,15.7,4.3,24.2,4.6
		c1.1,0,2.2,0.1,3.2,0.1s2.2,0,3.2-0.1c1.6-0.1,3.3-0.2,4.9-0.3c6.7-0.7,13.1-2.1,19.3-4.3c0.3-0.1,0.6-0.2,1-0.4
		c3.5-1.3,6.8-2.8,10.1-4.5c5-2.7,9.7-5.8,14.1-9.4c0.8-0.7,1.6-1.3,2.3-2c2-1.7,3.8-3.6,5.6-5.5c0.3-0.3,0.6-0.6,0.9-1
		c3.5-3.9,6.6-8.1,9.3-12.6c1.9-3.1,3.6-6.4,5-9.8c0.7-1.6,1.4-3.3,2-5c1.7-4.8,3-9.9,3.8-15.1c0.6-3.7,0.9-7.5,0.9-11.4
		c0-0.3,0-0.7,0-1C355.7,260.5,355.4,256.8,354.9,253.1z M294,282.4c-1,1.1-2.1,2.2-3.3,3.2c-4.7,3.8-10.7,6.1-17.3,6.1
		c-4.7,0-9.2-1.2-13.1-3.3l0,0c-1.5-0.8-2.9-1.7-4.2-2.8c-2.4-1.9-4.4-4.2-6.1-6.9l0,0c-2.6-4.2-4.1-9.1-4.1-14.5
		c0-4.9,1.3-9.4,3.5-13.4l0,0c1.3-2.2,2.8-4.3,4.6-6.1c0.4-0.4,0.9-0.8,1.3-1.2c0.2-0.2,0.4-0.4,0.7-0.6l0,0
		c4.7-3.9,10.8-6.2,17.3-6.2s12.6,2.3,17.3,6.2l0,0c0.2,0.2,0.4,0.4,0.7,0.6c2.4,2.1,4.4,4.6,6,7.3l0,0c2.2,4,3.5,8.5,3.5,13.4
		C300.8,271.2,298.2,277.5,294,282.4z"/>
</g>
<g>
	<path class="st0" d="M592.1,536.1l40.6-244.8h66.5l-16.2,99h3.3l89.9-99h77.4l-100.4,109l61.7,135.8h-79.3l-39.2-91.8L669,473.5
		l-10.5,62.6H592.1z"/>
	<path class="st0" d="M846,536.1l40.6-244.8H1063l-9.1,53.5H944l-6.7,42.1h100.9l-9.1,53.5H928.2l-6.7,42.1H1031l-9.1,53.5
		L846,536.1L846,536.1z"/>
	<path class="st0" d="M1099.4,291.3h74.1l31.1,99.4h2.4l64.1-99.4h74.1l-117.6,167.8l-12.9,77h-66l12.9-77L1099.4,291.3z"/>
</g>
<g>
	<path class="st0" d="M664.2,595.4h-17.2c-0.3-2.2-1-4.2-1.9-5.9c-1-1.7-2.2-3.2-3.7-4.5c-1.5-1.2-3.3-2.2-5.2-2.8s-4.1-1-6.4-1
		c-4.2,0-7.8,1-10.8,3.1c-3.1,2-5.5,5-7.2,8.9c-1.7,3.9-2.5,8.6-2.5,14.2c0,5.7,0.8,10.5,2.6,14.4c1.7,3.9,4.1,6.8,7.2,8.8
		c3.1,2,6.7,3,10.7,3c2.3,0,4.4-0.3,6.3-0.9c2-0.6,3.7-1.5,5.2-2.6c1.5-1.2,2.8-2.6,3.8-4.2s1.7-3.6,2.1-5.7l17.2,0.1
		c-0.4,3.7-1.5,7.2-3.3,10.6s-4.1,6.5-7.1,9.1s-6.5,4.8-10.6,6.3c-4.1,1.5-8.7,2.3-13.8,2.3c-7.2,0-13.5-1.6-19.2-4.9
		s-10.1-7.9-13.3-14.1c-3.2-6.1-4.9-13.6-4.9-22.3c0-8.8,1.7-16.2,4.9-22.3s7.8-10.8,13.4-14c5.6-3.2,12-4.8,19-4.8
		c4.7,0,9,0.7,13,2c4,1.3,7.5,3.2,10.6,5.7c3.1,2.5,5.6,5.5,7.5,9.2C662.5,586.6,663.7,590.8,664.2,595.4z"/>
	<path class="st0" d="M696.9,647.5h-18.2l27.7-80.2h21.9l27.7,80.2h-18.2l-20.1-61.9H717L696.9,647.5z M695.7,616h42.9v13.2h-42.9
		V616z"/>
	<path class="st0" d="M772.2,647.5v-80.2h31.7c6.1,0,11.2,1.1,15.5,3.2c4.3,2.2,7.6,5.2,9.8,9.1s3.4,8.5,3.4,13.8
		c0,5.3-1.2,9.9-3.5,13.7c-2.3,3.8-5.6,6.8-10,8.8s-9.6,3.1-15.8,3.1h-21.2v-13.6h18.5c3.2,0,5.9-0.4,8.1-1.3s3.7-2.2,4.8-4
		s1.6-4,1.6-6.6c0-2.7-0.5-4.9-1.6-6.7s-2.7-3.2-4.8-4.2c-2.2-1-4.9-1.4-8.1-1.4h-11.4v66.4L772.2,647.5L772.2,647.5z M815.5,611
		l19.9,36.5h-18.7L797.2,611H815.5z"/>
	<path class="st0" d="M883.4,647.5v-80.2H915c6.1,0,11.2,1.1,15.5,3.2c4.3,2.2,7.6,5.2,9.8,9.1s3.4,8.5,3.4,13.8
		c0,5.3-1.2,9.9-3.5,13.7c-2.3,3.8-5.6,6.8-10,8.8s-9.6,3.1-15.8,3.1h-21.2v-13.6h18.5c3.2,0,5.9-0.4,8.1-1.3s3.7-2.2,4.8-4
		s1.6-4,1.6-6.6c0-2.7-0.5-4.9-1.6-6.7s-2.7-3.2-4.8-4.2c-2.2-1-4.9-1.4-8.1-1.4h-11.4v66.4L883.4,647.5L883.4,647.5z M926.7,611
		l19.9,36.5h-18.7L908.4,611H926.7z"/>
	<path class="st0" d="M962.4,647.5v-80.2h54.1v14h-37.1v19.1h34.3v14h-34.3v19.2h37.2v14L962.4,647.5L962.4,647.5z"/>
	<path class="st0" d="M1103.7,567.3v80.2H1089l-34.9-50.5h-0.6v50.5h-17v-80.2h14.9l34.6,50.5h0.7v-50.5H1103.7z"/>
	<path class="st0" d="M1121.2,581.3v-14h65.9v14h-24.6v66.2h-16.8v-66.2H1121.2z"/>
	<path class="st0" d="M1218.4,647.5h-18.2l27.7-80.2h21.9l27.7,80.2h-18.2l-20.1-61.9h-0.6L1218.4,647.5z M1217.3,616h42.9v13.2
		h-42.9V616z"/>
	<path class="st0" d="M1293.7,647.5v-80.2h17v66.2h34.4v14L1293.7,647.5L1293.7,647.5z"/>
</g>
</svg>
