<?xml version="1.0" encoding="utf-8"?>
<!-- Generator: Adobe Illustrator 28.1.0, SVG Export Plug-In . SVG Version: 6.00 Build 0)  -->
<svg version="1.1" id="Layer_1" xmlns="http://www.w3.org/2000/svg" xmlns:xlink="http://www.w3.org/1999/xlink" x="0px" y="0px"
	 viewBox="0 0 1357.3 426.2" style="enable-background:new 0 0 1357.3 426.2;" xml:space="preserve">
<style type="text/css">
	.st0{fill:#051036;}
	.st1{fill:url(#SVGID_1_);}
</style>
<g>
	<path class="st0" d="M299.9,268.3l-1,1.2l-3.3,4l-4.9,5.8l-2.7,3.2l-1.2,1.4l-9.7,11.6l-1,1.2l-1.9-1.8l-10.8-10.2l-0.7-0.7l-2-1.9
		l-2-1.9l-1-0.9l-8.5-8l-2.1-1.9l-7-6.6l-2.1-2l-2.4-2.2l-2.2-2.1l-11.3-10.6l-0.6-0.6l-1.8-1.7l-1.4-1.3l-9.7-9.2l-2.7-2.5
		c2.6-1.7,5-3.4,7.4-5.4c0.6-0.5,1.1-0.9,1.6-1.4c1.8-1.6,3.6-3.3,5.3-5.1c0.4-0.5,0.9-0.9,1.3-1.4c1.6-1.8,3.1-3.7,4.5-5.7
		c1.5-2,2.8-4.1,4.1-6.3c0.3-0.6,0.7-1.2,1-1.8l1.3,1.3l0.6,0.6l7,6.6l4.9,4.7l1,0.9l6.7,6.3l5.9,5.5l0.1,0.1l0.8,0.7l12.8,12.1l0,0
		l0.6,0.6l4.1,3.9l8.8,8.3l0.5,0.5l3.9,3.7l1.6,1.5l3.7,3.5l3.9,3.7L299.9,268.3z"/>
	
		<linearGradient id="SVGID_1_" gradientUnits="userSpaceOnUse" x1="1" y1="6.124" x2="333.5301" y2="6.124" gradientTransform="matrix(1 0 0 -1 0 219.6591)">
		<stop  offset="0" style="stop-color:#B0E1EA"/>
		<stop  offset="1" style="stop-color:#00A1B5"/>
	</linearGradient>
	<path class="st1" d="M118.4,222.8H10.5c-1-2.8-1.9-5.6-2.7-8.5c-0.9-3.2-1.8-6.4-2.5-9.7c0-0.1-0.1-0.2-0.1-0.3
		c-1-4.2-1.8-8.5-2.4-12.8c-0.3-1.9-0.5-3.8-0.7-5.7c-0.5-4.9-0.9-9.9-1-14.9c0-1.2,0-2.4,0-3.6c0-0.9,0-1.7,0-2.5
		c0.1-5.4,0.4-10.7,1-15.9c0.2-1.6,0.4-3.2,0.6-4.8c0.6-4.6,1.5-9.2,2.5-13.7c0.7-3.1,1.5-6.2,2.4-9.2c0.9-3.1,1.9-6.2,3-9.2
		c1.3-3.7,2.7-7.3,4.3-10.9c1.1-2.6,2.3-5.1,3.5-7.6c0.4-0.8,0.8-1.6,1.2-2.4c1.4-2.7,2.8-5.3,4.4-7.9c1.6-2.8,3.4-5.5,5.1-8.2
		c1.8-2.7,3.6-5.3,5.5-7.8c1.1-1.5,2.2-2.9,3.4-4.3c1.7-2.2,3.5-4.3,5.4-6.3c1.1-1.2,2.2-2.4,3.3-3.6c3.1-3.3,6.4-6.4,9.7-9.5
		c1.2-1.1,2.5-2.2,3.7-3.2c0.9-0.7,1.7-1.4,2.6-2.2c3.9-3.2,8-6.1,12.1-8.9c0,0,0,0,0,0c5.2-3.5,10.5-6.6,16.1-9.5h0l0,0
		c0.8-0.4,1.5-0.8,2.3-1.2v151.3l0,0c0.2,5.6,0.9,11,2.3,16.2c0.6,2.4,1.4,4.8,2.2,7.2c1.5,3.9,3.2,7.7,5.3,11.3
		c1.3,2.2,2.6,4.2,4.1,6.3c1.4,2,2.9,3.9,4.5,5.7C113.9,218.5,116.1,220.7,118.4,222.8z M316.2,93.5h-149c-3.6,0-7.1,0.3-10.5,0.7
		c-0.9,0.1-1.8,0.3-2.7,0.4c-1.8,0.3-3.5,0.7-5.3,1.2c-4.8,1.2-9.3,2.9-13.7,5c-1.6,0.8-3.2,1.6-4.8,2.5c-3.8,2.2-7.4,4.8-10.8,7.6
		c-0.4,0.3-0.8,0.6-1.1,1c-1,0.9-2,1.9-3,2.8c-1.2,1.2-2.4,2.4-3.5,3.7V10.6c5.2-1.8,10.5-3.4,15.9-4.7c0.9-0.2,1.7-0.4,2.6-0.6
		c1.9-0.4,3.7-0.8,5.6-1.2c4.2-0.8,8.5-1.4,12.8-1.9l0,0v0c4.5-0.5,9.1-0.8,13.7-0.9c1.6,0,3.2-0.1,4.8-0.1c1.6,0,3.2,0,4.8,0.1
		c4.6,0.1,9.2,0.5,13.7,0.9v0l0,0c4.3,0.5,8.6,1.1,12.8,1.9c1.9,0.4,3.7,0.7,5.6,1.2c0.9,0.2,1.7,0.4,2.6,0.6
		c5.4,1.3,10.7,2.9,15.9,4.7c1.1,0.4,2.2,0.8,3.2,1.2c5.2,2,10.3,4.2,15.2,6.6c0.8,0.4,1.6,0.8,2.3,1.2l0,0h0
		c5.6,2.9,10.9,6,16.1,9.5c0,0,0,0,0,0c4.2,2.8,8.2,5.8,12.1,8.9c0.9,0.7,1.7,1.4,2.6,2.2c1.3,1.1,2.5,2.1,3.7,3.2
		c3.4,3,6.6,6.2,9.7,9.5c1.1,1.2,2.2,2.4,3.3,3.6c1.9,2.1,3.7,4.2,5.4,6.3c1.2,1.4,2.3,2.9,3.4,4.3c1.9,2.5,3.8,5.1,5.5,7.8
		c1.8,2.7,3.5,5.4,5.1,8.2c1.5,2.6,3,5.2,4.4,7.9C315.5,91.9,315.8,92.7,316.2,93.5z M155.3,38.6L155.3,38.6l-0.1,0
		C155.2,38.6,155.2,38.6,155.3,38.6z M333.5,164.8c-0.1-5.4-0.4-10.7-1-15.9c-0.2-1.6-0.4-3.2-0.6-4.8c-0.6-4.6-1.5-9.2-2.5-13.7
		c-0.7-3.1-1.5-6.2-2.4-9.2c-0.9-3.1-1.9-6.2-3-9.2H216.1c1,0.9,2,1.9,3,2.8c1.2,1.2,2.4,2.4,3.5,3.7c1.7,2,3.4,4.1,4.9,6.2
		c0.2,0.2,0.4,0.5,0.5,0.7c1.1,1.6,2.2,3.3,3.1,5c2.2,3.8,4.1,7.8,5.6,12c0.8,2.1,1.4,4.3,2,6.5c1.4,5.5,2.2,11.2,2.3,17.1l0,0v3.7
		l0,0c-0.1,4.8-0.8,9.5-1.8,14.1l1.8,1.7l0.4,0.4l4,3.7l8.9,8.4l4.5,4.3l0.7,0.6l1.5,1.4l7.8,7.4l3.5,3.3l5.7,5.4l2.6,2.4l2.4,2.2
		l2.8,2.7l10.7,10.1l0.4,0.4l2.3,2.2l0.9,0.9l4.5,4.3l6.1,5.7c1.5-2.5,2.9-5.1,4.2-7.7c0.4-0.8,0.8-1.6,1.2-2.4
		c1.1-2.3,2.2-4.6,3.2-6.9c1.7-3.8,3.2-7.6,4.6-11.5c1-2.8,1.9-5.6,2.7-8.5c0.9-3.2,1.8-6.4,2.5-9.7c0-0.1,0.1-0.2,0.1-0.3
		c1-4.2,1.8-8.5,2.4-12.8c0.3-1.9,0.5-3.8,0.7-5.7c0.5-4.9,0.9-9.9,1-14.9c0-1.2,0-2.4,0-3.6C333.5,166.5,333.5,165.7,333.5,164.8z
		 M260.3,305.2l-0.7-0.6l-7.9-7.4l-0.4-0.4l-0.4-0.4l-4.4-4.2l-5.3-5l-2.9-2.7l-5.7-5.4l-0.8-0.8l-6.9-6.5l-2.2-2l-4.2-4l-6.3-6
		l-0.8-0.7l-7.2-6.8l-0.1-0.1l-6.2-5.8l-5.3-5l-3.5-3.3c-1.1,0.4-2.2,0.7-3.4,1c-2,0.5-4,0.9-6,1.3c-0.3,0.1-0.6,0.1-0.9,0.2
		c-3.8,0.6-7.6,0.9-11.5,0.9h-149c0.4,0.8,0.8,1.6,1.2,2.4c1.5,2.9,3.1,5.7,4.7,8.5c1.5,2.6,3.1,5.1,4.8,7.6c1.9,2.8,3.9,5.6,6,8.3
		c1,1.3,7.8,10.1,7.8,10.1l3.9,4.6l9.7,11.6l1.9,2.2l0.4,0.5l12.1,14.4l3,3.6l1.1,1.3l8,9.5l6.4,7.7l4.1,4.8l1.5,1.8l9.9,11.8
		l2.2,2.6l4.9,5.8l7.2,8.6l1.3,1.5l10,11.9l0.8,0.9l4.7,5.6l7.3,8.7l5.6,6.7l2.5,3l3.9,4.6l11.6,13.8h0.9l11.6-13.8l3.9-4.6l2.5-3
		l5.6-6.7l7.3-8.7l4.7-5.6l0.8-0.9l10-11.9l1.3-1.5l7.2-8.6l4.9-5.8l2.2-2.6l9.9-11.8l1.5-1.8l4.1-4.8l6.4-7.7l8-9.5l1.1-1.3l3-3.6
		l1.5-1.8L260.3,305.2z"/>
	<path class="st0" d="M221.2,160.9c-0.5-3.8-1.4-7.5-2.7-11c-1.2-3.3-2.6-6.4-4.4-9.4c-0.6-1-1.2-2-1.8-2.9
		c-1.4-2.2-3.1-4.2-4.8-6.2c-0.9-1.1-1.9-2.1-2.9-3.1c-0.5-0.4-0.9-0.9-1.4-1.3c-0.4-0.3-0.7-0.6-1.1-0.9c-4.7-4-10.2-7.3-16.1-9.5
		c-0.4-0.2-0.9-0.3-1.3-0.5c-5.4-1.9-11.2-3-17.2-3.1c-0.4,0-0.9,0-1.3,0s-0.9,0-1.3,0c-6,0.1-11.8,1.2-17.2,3.1
		c-0.4,0.2-0.9,0.3-1.3,0.5c-5.9,2.3-11.4,5.5-16.1,9.5c-0.4,0.3-0.7,0.6-1.1,0.9c-0.5,0.4-0.9,0.9-1.4,1.3c-1,1-2,2-2.9,3.1
		c-1.7,1.9-3.3,4-4.8,6.2c-0.6,1-1.3,1.9-1.8,2.9c-1.7,3-3.2,6.1-4.4,9.4c-1.2,3.5-2.1,7.2-2.7,11c-0.3,2.4-0.5,4.9-0.5,7.5
		c0,2.8,0.2,5.6,0.6,8.3c0.5,3.5,1.4,6.9,2.5,10.1c1.2,3.5,2.8,6.8,4.7,10c1.8,3,3.9,5.9,6.3,8.5c1.4,1.5,2.8,3,4.4,4.4
		c0.5,0.5,1,0.9,1.6,1.4c4.8,4,10.3,7.2,16.3,9.4c0.2,0.1,0.4,0.2,0.6,0.2c5.1,1.8,10.6,2.9,16.3,3.1c0.7,0,1.5,0,2.2,0
		c0.7,0,1.5,0,2.2,0c1.1,0,2.2-0.1,3.3-0.2c4.5-0.4,8.9-1.4,13-2.9c0.2-0.1,0.4-0.2,0.6-0.2c2.3-0.9,4.6-1.9,6.8-3
		c3.4-1.8,6.6-3.9,9.5-6.3c0.5-0.4,1.1-0.9,1.6-1.4c1.3-1.2,2.6-2.4,3.8-3.7c0.2-0.2,0.4-0.4,0.6-0.6c2.3-2.6,4.4-5.5,6.3-8.5
		c1.3-2.1,2.4-4.3,3.4-6.6c0.5-1.1,0.9-2.2,1.3-3.4c1.1-3.3,2-6.6,2.5-10.1c0.4-2.5,0.6-5.1,0.6-7.7c0-0.2,0-0.4,0-0.7
		C221.7,165.8,221.5,163.3,221.2,160.9z M180.1,180.6c-0.7,0.8-1.4,1.5-2.2,2.1c-3.2,2.6-7.2,4.1-11.6,4.1c-3.2,0-6.2-0.8-8.8-2.2
		l0,0c-1-0.5-1.9-1.2-2.8-1.9c-1.6-1.3-3-2.9-4.1-4.6l0,0c-1.8-2.8-2.8-6.2-2.8-9.7c0-3.3,0.8-6.3,2.3-9l0,0
		c0.8-1.5,1.9-2.9,3.1-4.1c0.3-0.3,0.6-0.6,0.9-0.8c0.1-0.1,0.3-0.2,0.4-0.4l0,0c3.2-2.6,7.2-4.2,11.7-4.2c4.4,0,8.5,1.6,11.7,4.2
		l0,0c0.1,0.1,0.3,0.2,0.4,0.4c1.6,1.4,3,3.1,4,4.9l0,0c1.5,2.7,2.3,5.7,2.3,9C184.7,173,183,177.3,180.1,180.6z"/>
</g>
<g>
	<path class="st0" d="M447.9,293.3L496.3,1.7h79.2l-19.4,117.9h4L667.2,1.7h92.3L639.8,131.6l73.5,161.8h-94.5L572,184l-32.5,34.7
		L527,293.3H447.9z"/>
	<path class="st0" d="M750.4,293.3L798.8,1.7H1009l-10.8,63.8h-131l-8,50.1h120.2l-10.8,63.8H848.3l-8,50.1h130.4L960,293.4
		L750.4,293.3L750.4,293.3z"/>
	<path class="st0" d="M1052.3,1.7h88.3l37,118.5h2.8l76.3-118.5h88.3L1205,201.6l-15.4,91.7H1111l15.4-91.7L1052.3,1.7z"/>
</g>
<g>
	<path class="st0" d="M533.9,363h-20.4c-0.4-2.6-1.1-5-2.3-7.1c-1.2-2.1-2.6-3.8-4.4-5.3c-1.8-1.5-3.9-2.6-6.2-3.4
		c-2.3-0.8-4.9-1.2-7.6-1.2c-4.9,0-9.3,1.2-12.9,3.7c-3.7,2.4-6.5,6-8.5,10.6c-2,4.6-3,10.3-3,16.9c0,6.8,1,12.5,3.1,17.2
		c2,4.6,4.9,8.1,8.6,10.5c3.7,2.4,7.9,3.6,12.7,3.6c2.7,0,5.2-0.4,7.5-1.1c2.3-0.7,4.4-1.8,6.2-3.1c1.8-1.4,3.3-3.1,4.5-5.1
		c1.2-2,2-4.3,2.5-6.8l20.4,0.1c-0.5,4.4-1.8,8.6-3.9,12.7c-2.1,4.1-4.9,7.7-8.4,10.9s-7.7,5.7-12.6,7.6c-4.9,1.8-10.4,2.8-16.5,2.8
		c-8.5,0-16.1-1.9-22.9-5.8c-6.7-3.9-12-9.4-15.9-16.8c-3.9-7.3-5.8-16.2-5.8-26.6c0-10.4,2-19.3,5.9-26.6c3.9-7.3,9.2-12.9,16-16.7
		c6.7-3.8,14.3-5.8,22.7-5.8c5.5,0,10.7,0.8,15.4,2.3c4.7,1.6,8.9,3.8,12.6,6.8c3.7,3,6.7,6.6,9,10.9
		C531.7,352.6,533.2,357.5,533.9,363z"/>
	<path class="st0" d="M572.7,426.2h-21.7l33-95.6h26l33,95.6h-21.7l-23.9-73.7h-0.8L572.7,426.2z M571.4,388.6h51.2v15.8h-51.2
		V388.6z"/>
	<path class="st0" d="M662.5,426.2v-95.6h37.7c7.2,0,13.4,1.3,18.5,3.8c5.1,2.6,9,6.2,11.7,10.9c2.7,4.7,4,10.2,4,16.5
		c0,6.4-1.4,11.8-4.1,16.4c-2.7,4.6-6.7,8.1-11.9,10.5s-11.4,3.6-18.8,3.6h-25.2V376h22c3.9,0,7.1-0.5,9.6-1.6
		c2.5-1.1,4.5-2.6,5.7-4.8s1.9-4.7,1.9-7.9c0-3.2-0.6-5.9-1.9-8c-1.3-2.2-3.2-3.8-5.7-5c-2.6-1.1-5.8-1.7-9.7-1.7h-13.6v79.1
		L662.5,426.2L662.5,426.2z M714.1,382.7l23.8,43.5h-22.3l-23.2-43.5H714.1z"/>
	<path class="st0" d="M795,426.2v-95.6h37.7c7.2,0,13.4,1.3,18.5,3.8c5.1,2.6,9,6.2,11.7,10.9c2.7,4.7,4,10.2,4,16.5
		c0,6.4-1.4,11.8-4.1,16.4c-2.7,4.6-6.7,8.1-11.9,10.5s-11.4,3.6-18.8,3.6h-25.2V376h22c3.9,0,7.1-0.5,9.6-1.6s4.5-2.6,5.7-4.8
		s1.9-4.7,1.9-7.9c0-3.2-0.6-5.9-1.9-8c-1.3-2.2-3.2-3.8-5.7-5c-2.6-1.1-5.8-1.7-9.7-1.7h-13.6v79.1L795,426.2L795,426.2z
		 M846.6,382.7l23.8,43.5H848l-23.2-43.5H846.6z"/>
	<path class="st0" d="M889.1,426.2v-95.6h64.4v16.7h-44.2V370h40.9v16.7h-40.9v22.8h44.4v16.7L889.1,426.2L889.1,426.2z"/>
	<path class="st0" d="M1057.4,330.6v95.6H1040L998.4,366h-0.7v60.2h-20.2v-95.6h17.7l41.3,60.1h0.8v-60.1H1057.4z"/>
	<path class="st0" d="M1078.4,347.2v-16.7h78.5v16.7h-29.3v78.9h-20v-78.9H1078.4z"/>
	<path class="st0" d="M1194.2,426.2h-21.7l33-95.6h26l33,95.6h-21.7l-23.9-73.7h-0.8L1194.2,426.2z M1192.9,388.6h51.2v15.8h-51.2
		V388.6z"/>
	<path class="st0" d="M1283.9,426.2v-95.6h20.2v78.9h41v16.7L1283.9,426.2L1283.9,426.2z"/>
</g>
</svg>
